<svg width="350" height="350" xmlns="http://www.w3.org/2000/svg">
<rect width="100%" height="100%" fill="url(#grid)" />
<g transform="rotate(-45.0, 175.0, 175.0)">
<line x1="150.0" y1="175.0" x2="160.0" y2="175.0" stroke="black" stroke-width="1.5"/>
<line x1="190.0" y1="175.0" x2="200.0" y2="175.0" stroke="black" stroke-width="1.5"/>
<circle cx="175.0" cy="175.0" r="15" fill="white" stroke="black" stroke-width="1.5"/>
<line x1="168.0" y1="175.0" x2="173.0" y2="175.0" stroke="black" stroke-width="1.5"/>
<line x1="170.5" y1="172.5" x2="170.5" y2="177.5" stroke="black" stroke-width="1.5"/>
<line x1="177.0" y1="175.0" x2="182.0" y2="175.0" stroke="black" stroke-width="1.5"/>
<text x="175.0" y="155.0" text-anchor="middle" font-weight="bold" font-size="12">v1</text>
<text x="175.0" y="202.0" text-anchor="middle" font-size="10">5.0</text>
</g>
<line x1="250" y1="100" x2="192.6776695296637" y2="157.3223304703363" stroke="black" stroke-width="1.5"/>
<line x1="100" y1="250" x2="157.3223304703363" y2="192.6776695296637" stroke="black" stroke-width="1.5"/>
<g transform="rotate(0.0, 175.0, 100.0)">
<line x1="145.0" y1="100.0" x2="155.0" y2="100.0" stroke="black" stroke-width="1.5"/>
<path d="M 155.0,100.0 L 161.66666666666666,110.0 L 168.33333333333331,90.0 L 175.0,110.0 L 181.66666666666669,90.0 L 188.33333333333334,110.0 L 195.0,100.0" stroke="black" fill="none" stroke-width="1.5"/>
<line x1="195.0" y1="100.0" x2="205.0" y2="100.0" stroke="black" stroke-width="1.5"/>
</g>
<text x="175.0" y="85.0" text-anchor="middle" font-weight="bold" font-size="12">r1</text>
<text x="175.0" y="115.0" text-anchor="middle" font-size="10">1000.0</text>
<line x1="100" y1="100" x2="145.0" y2="100.0" stroke="black" stroke-width="1.5"/>
<line x1="250" y1="100" x2="205.0" y2="100.0" stroke="black" stroke-width="1.5"/>
<g transform="rotate(90.0, 115.0, 175.0)">
<line x1="85.0" y1="175.0" x2="95.0" y2="175.0" stroke="black" stroke-width="1.5"/>
<path d="M 95.0,175.0 L 101.66666666666667,185.0 L 108.33333333333333,165.0 L 115.0,185.0 L 121.66666666666667,165.0 L 128.33333333333334,185.0 L 135.0,175.0" stroke="black" fill="none" stroke-width="1.5"/>
<line x1="135.0" y1="175.0" x2="145.0" y2="175.0" stroke="black" stroke-width="1.5"/>
</g>
<text x="115.0" y="160.0" text-anchor="middle" font-weight="bold" font-size="12">r2</text>
<text x="115.0" y="190.0" text-anchor="middle" font-size="10">2000.0</text>
<line x1="100" y1="100" x2="115.0" y2="145.0" stroke="black" stroke-width="1.5"/>
<line x1="100" y1="250" x2="115.0" y2="205.0" stroke="black" stroke-width="1.5"/>
<g transform="rotate(90.0, 85.0, 175.0)">
<line x1="55.0" y1="175.0" x2="65.0" y2="175.0" stroke="black" stroke-width="1.5"/>
<path d="M 65.0,175.0 L 71.66666666666667,185.0 L 78.33333333333334,165.0 L 85.0,185.0 L 91.66666666666667,165.0 L 98.33333333333334,185.0 L 105.0,175.0" stroke="black" fill="none" stroke-width="1.5"/>
<line x1="105.0" y1="175.0" x2="115.0" y2="175.0" stroke="black" stroke-width="1.5"/>
</g>
<text x="85.0" y="160.0" text-anchor="middle" font-weight="bold" font-size="12">r3</text>
<text x="85.0" y="190.0" text-anchor="middle" font-size="10">3000.0</text>
<line x1="100" y1="100" x2="85.0" y2="145.0" stroke="black" stroke-width="1.5"/>
<line x1="100" y1="250" x2="85.0" y2="205.0" stroke="black" stroke-width="1.5"/>
<text x="105" y="95" font-family="sans-serif" font-size="10" fill="blue">Node 177</text>
<circle cx="100" cy="100" r="3" fill="black"/>
<text x="255" y="95" font-family="sans-serif" font-size="10" fill="blue">Node 182</text>
<circle cx="250" cy="100" r="3" fill="black"/>
<text x="105" y="245" font-family="sans-serif" font-size="10" fill="blue">Node 9 (GND)</text>
<circle cx="100" cy="250" r="3" fill="black"/>
<path d="M90 255 l 20 0 M95 260 l 10 0 M100 265 l 0 0" stroke="black" stroke-width="1.5"/>
</svg>