<svg width="350" height="200" xmlns="http://www.w3.org/2000/svg">
<rect width="100%" height="100%" fill="url(#grid)" />
<g transform="rotate(0.0, 175.0, 70.0)">
<line x1="150.0" y1="70.0" x2="160.0" y2="70.0" stroke="black" stroke-width="1.5"/>
<line x1="190.0" y1="70.0" x2="200.0" y2="70.0" stroke="black" stroke-width="1.5"/>
<circle cx="175.0" cy="70.0" r="15" fill="white" stroke="black" stroke-width="1.5"/>
<line x1="168.0" y1="70.0" x2="173.0" y2="70.0" stroke="black" stroke-width="1.5"/>
<line x1="170.5" y1="67.5" x2="170.5" y2="72.5" stroke="black" stroke-width="1.5"/>
<line x1="177.0" y1="70.0" x2="182.0" y2="70.0" stroke="black" stroke-width="1.5"/>
<text x="175.0" y="50.0" text-anchor="middle" font-weight="bold" font-size="12">v1</text>
<text x="175.0" y="97.0" text-anchor="middle" font-size="10">5.0</text>
</g>
<line x1="250" y1="100" x2="200.0" y2="70.0" stroke="black" stroke-width="1.5"/>
<line x1="100" y1="100" x2="150.0" y2="70.0" stroke="black" stroke-width="1.5"/>
<g transform="rotate(0.0, 175.0, 100.0)">
<line x1="145.0" y1="100.0" x2="155.0" y2="100.0" stroke="black" stroke-width="1.5"/>
<path d="M 155.0,100.0 L 161.66666666666666,110.0 L 168.33333333333331,90.0 L 175.0,110.0 L 181.66666666666669,90.0 L 188.33333333333334,110.0 L 195.0,100.0" stroke="black" fill="none" stroke-width="1.5"/>
<line x1="195.0" y1="100.0" x2="205.0" y2="100.0" stroke="black" stroke-width="1.5"/>
</g>
<text x="175.0" y="85.0" text-anchor="middle" font-weight="bold" font-size="12">r1</text>
<text x="175.0" y="115.0" text-anchor="middle" font-size="10">100.0</text>
<line x1="100" y1="100" x2="145.0" y2="100.0" stroke="black" stroke-width="1.5"/>
<line x1="250" y1="100" x2="205.0" y2="100.0" stroke="black" stroke-width="1.5"/>
<g transform="rotate(0.0, 175.0, 130.0)">
<line x1="145.0" y1="130.0" x2="155.0" y2="130.0" stroke="black" stroke-width="1.5"/>
<path d="M 155.0,130.0 L 161.66666666666666,140.0 L 168.33333333333331,120.0 L 175.0,140.0 L 181.66666666666669,120.0 L 188.33333333333334,140.0 L 195.0,130.0" stroke="black" fill="none" stroke-width="1.5"/>
<line x1="195.0" y1="130.0" x2="205.0" y2="130.0" stroke="black" stroke-width="1.5"/>
</g>
<text x="175.0" y="115.0" text-anchor="middle" font-weight="bold" font-size="12">r2</text>
<text x="175.0" y="145.0" text-anchor="middle" font-size="10">100.0</text>
<line x1="100" y1="100" x2="145.0" y2="130.0" stroke="black" stroke-width="1.5"/>
<line x1="250" y1="100" x2="205.0" y2="130.0" stroke="black" stroke-width="1.5"/>
<text x="105" y="95" font-family="sans-serif" font-size="10" fill="blue">Node 166 (GND)</text>
<circle cx="100" cy="100" r="3" fill="black"/>
<path d="M90 105 l 20 0 M95 110 l 10 0 M100 115 l 0 0" stroke="black" stroke-width="1.5"/>
<text x="255" y="95" font-family="sans-serif" font-size="10" fill="blue">Node 72</text>
<circle cx="250" cy="100" r="3" fill="black"/>
</svg>